<?xml version="1.0" encoding="UTF-8" standalone="no"?>
<svg
   xmlns:dc="http://purl.org/dc/elements/1.1/"
   xmlns:cc="http://creativecommons.org/ns#"
   xmlns:rdf="http://www.w3.org/1999/02/22-rdf-syntax-ns#"
   xmlns:svg="http://www.w3.org/2000/svg"
   xmlns="http://www.w3.org/2000/svg"
   xmlns:sodipodi="http://sodipodi.sourceforge.net/DTD/sodipodi-0.dtd"
   xmlns:inkscape="http://www.inkscape.org/namespaces/inkscape"
   inkscape:export-ydpi="2457"
   inkscape:export-xdpi="2457"
   inkscape:export-filename="cover.png"
   sodipodi:docname="cover.svg"
   inkscape:version="1.0 (4035a4fb49, 2020-05-01)"
   id="svg8"
   version="1.1"
   viewBox="0 0 10.583333 5.2916668"
   height="20"
   width="40">
  <defs
     id="defs2" />
  <sodipodi:namedview
     inkscape:snap-global="true"
     inkscape:document-rotation="0"
     inkscape:window-maximized="1"
     inkscape:window-y="-9"
     inkscape:window-x="-9"
     inkscape:window-height="1001"
     inkscape:window-width="1920"
     units="px"
     inkscape:snap-text-baseline="true"
     inkscape:snap-center="true"
     inkscape:snap-object-midpoints="true"
     inkscape:snap-midpoints="true"
     inkscape:snap-smooth-nodes="true"
     inkscape:snap-intersection-paths="true"
     inkscape:object-paths="true"
     inkscape:snap-bbox-midpoints="true"
     inkscape:snap-bbox-edge-midpoints="true"
     inkscape:bbox-nodes="true"
     inkscape:bbox-paths="true"
     inkscape:snap-bbox="true"
     showgrid="true"
     inkscape:current-layer="layer4"
     inkscape:document-units="px"
     inkscape:cy="6.4145993"
     inkscape:cx="16.977885"
     inkscape:zoom="32"
     inkscape:pageshadow="2"
     inkscape:pageopacity="0"
     borderopacity="1.0"
     bordercolor="#666666"
     pagecolor="#141f2e"
     id="base"
     guidecolor="#cb00ff"
     guideopacity="0.49803922"
     inkscape:lockguides="false">
    <inkscape:grid
       id="grid3713"
       type="xygrid"
       color="#d03fff"
       opacity="0.1254902"
       empcolor="#b43fff"
       empopacity="0.25098039" />
  </sodipodi:namedview>
  <metadata
     id="metadata5">
    <rdf:RDF>
      <cc:Work
         rdf:about="">
        <dc:format>image/svg+xml</dc:format>
        <dc:type
           rdf:resource="http://purl.org/dc/dcmitype/StillImage" />
        <dc:title />
      </cc:Work>
    </rdf:RDF>
  </metadata>
  <g
     sodipodi:insensitive="true"
     style="display:inline"
     transform="translate(0,-291.70832)"
     id="layer1"
     inkscape:groupmode="layer"
     inkscape:label="Background">
    <path
       transform="matrix(0.26458333,0,0,0.26458333,0,291.70832)"
       d="M 2.9492188,0 A 3.0000024,3.0000105 0 0 0 0,3 v 14 a 3.0000024,3.0000105 0 0 0 2.9492188,3 H 15 V 0 Z"
       style="opacity:0.998;fill:#094aaa;fill-opacity:1;stroke-width:3.99999;stroke-linecap:round;stroke-linejoin:round"
       id="rect831" />
    <path
       sodipodi:nodetypes="ccccccc"
       id="path856"
       style="opacity:0.998;fill:#e1e1e1;fill-opacity:1;stroke-width:1.05833;stroke-linecap:round;stroke-linejoin:round"
       d="m 9.8030192,291.70832 c 0.4331188,0.007 0.7803748,0.36057 0.7803138,0.79375 v 3.70417 c 6.1e-5,0.43318 -0.347195,0.78642 -0.7803138,0.79375 H 3.96875 v -5.29167 z" />
  </g>
  <g
     style="display:inline"
     inkscape:label="Foreground"
     id="layer4"
     inkscape:groupmode="layer">
    <text
       id="text872"
       y="292.51279"
       x="1.0451558"
       style="font-size:0.79375px;line-height:1.25;font-family:'DejaVu Sans Mono';-inkscape-font-specification:'DejaVu Sans Mono';letter-spacing:0px;word-spacing:0px;fill:#e1e1e1;fill-opacity:1;stroke-width:0.264583;"
       xml:space="preserve"
       transform="translate(0,-291.70831)"><tspan
         style="font-style:normal;font-variant:normal;font-weight:normal;font-stretch:normal;font-family:Calibri;-inkscape-font-specification:Calibri;fill:#e1e1e1;fill-opacity:1;stroke-width:0.264583;"
         y="292.51279"
         x="1.0451558"
         id="tspan870"
         sodipodi:role="line">Valentin</tspan></text>
    <text
       xml:space="preserve"
       style="font-size:0.79375px;line-height:1.25;font-family:'DejaVu Sans Mono';-inkscape-font-specification:'DejaVu Sans Mono';letter-spacing:0px;word-spacing:0px;fill:#094aaa;fill-opacity:1;stroke-width:0.264583"
       x="4.1666708"
       y="292.47443"
       id="text876"
       transform="translate(0,-291.70831)"><tspan
         sodipodi:role="line"
         id="tspan874"
         x="4.1666708"
         y="292.47443"
         style="font-style:normal;font-variant:normal;font-weight:normal;font-stretch:normal;font-family:Calibri;-inkscape-font-specification:Calibri;fill:#094aaa;fill-opacity:1;stroke-width:0.264583">BERGER</tspan></text>
    <path
       style="fill:#8e919c;fill-opacity:1;stroke-width:0.016535"
       d="m 4.9917367,1.719802 c -0.00371,-0.00637 -0.0088,-0.011971 -0.014402,-0.015229 L 4.7829644,1.5923494 c -0.011195,-0.00647 -0.029549,-0.00647 -0.040743,0 L 4.5478516,1.7045732 c -0.011195,0.00647 -0.020421,0.022372 -0.020421,0.035303 v 0.224431 c 0,0.00647 0.00231,0.013691 0.00602,0.020057 0.00362,0.00637 0.0088,0.011971 0.014402,0.015163 l 0.1942717,0.11229 c 0.011293,0.00647 0.029549,0.00647 0.040743,0 l 0.194368,-0.1122908 c 0.00561,-0.00319 0.010698,-0.0088 0.014402,-0.015163 0.00371,-0.00637 0.00593,-0.013609 0.00593,-0.020057 V 1.7398757 c 8.12e-5,-0.00647 -0.00223,-0.013691 -0.00584,-0.020057 z M 4.7625601,2.0088191 c -0.086462,0 -0.1567363,-0.070258 -0.1567363,-0.1567362 0,-0.086479 0.070258,-0.1567363 0.1567363,-0.1567363 0.055971,8.25e-5 0.1076601,0.029961 0.1357201,0.078261 l -0.06786,0.039287 c -0.014039,-0.024207 -0.039866,-0.039105 -0.06786,-0.039205 -0.043239,0 -0.078376,0.035137 -0.078376,0.078376 0,0.043239 0.035137,0.078376 0.078376,0.078376 0.027995,-8.25e-5 0.053822,-0.014997 0.06786,-0.039204 l 0.06786,0.039287 c -0.02806,0.0483 -0.079749,0.078178 -0.1357201,0.078261 z M 4.9192963,1.8607969 h -0.017395 v 0.017395 h -0.017478 v -0.017395 h -0.017395 v -0.017411 h 0.017395 v -0.017395 h 0.017477 v 0.017395 h 0.017395 z m 0.065281,0 h -0.017395 v 0.017395 h -0.017395 v -0.017395 h -0.017395 v -0.017411 h 0.017395 v -0.017395 h 0.017395 v 0.017395 h 0.017395 z"
       id="path2-4" />
    <path
       style="fill:#8e919c;fill-opacity:1;stroke-width:0.0165365"
       d="m 10.125181,1.536824 -0.2648315,0.2645833 0.081558,0.081558 0.3458108,-0.3458765 h -0.16219 z M 10.12553,1.7809021 9.9828036,1.9232645 10.12553,2.0659907 h 0.162519 l -0.142462,-0.142627 0.142462,-0.1424616 z"
       id="path2-3" />
    <path
       style="fill:#8e919c;fill-opacity:1;stroke-width:0.0165337"
       d="M 6.3399645,3.1513826 6.1089231,2.9204236 c -0.01326,-0.013343 -0.034868,-0.013343 -0.048229,0 l -0.047881,0.047964 0.060877,0.060794 c 0.014204,-0.00473 0.030404,-0.00156 0.041599,0.00974 0.011376,0.011375 0.014548,0.027729 0.00974,0.041847 l 0.058562,0.058645 c 0.014204,-0.00491 0.030572,-0.00172 0.041847,0.00964 0.01594,0.015839 0.01594,0.041499 0,0.057355 -0.01584,0.015839 -0.041417,0.015839 -0.057273,0 -0.011888,-0.01189 -0.014896,-0.029447 -0.00896,-0.043997 l -0.054862,-0.054596 v 0.1438926 c 0.00388,0.00192 0.00757,0.00448 0.010764,0.00767 0.015756,0.015939 0.015756,0.041499 0,0.057355 -0.01584,0.015839 -0.041599,0.015839 -0.057521,0 -0.015839,-0.015839 -0.015839,-0.041417 0,-0.057355 0.00405,-0.00395 0.00853,-0.00689 0.013343,-0.00886 V 3.1052573 c -0.00473,-0.00208 -0.00931,-0.00491 -0.01326,-0.00886 -0.011971,-0.01197 -0.014897,-0.029527 -0.0087,-0.044261 L 5.9892022,2.9920304 5.8307599,3.15039 c -0.013177,0.013261 -0.013177,0.034871 0,0.048229 l 0.2310416,0.2309589 c 0.013343,0.013341 0.034869,0.013341 0.048229,0 L 6.3399481,3.199661 c 0.013344,-0.013261 0.013344,-0.034871 0,-0.048229 z"
       id="path2-0" />
    <path
       style="fill:#8e919c;fill-opacity:1;stroke-width:0.0165364"
       d="M 7.1724269,2.1166657 7.4215972,1.8631132 7.6729177,2.1166657 Z M 7.143751,1.587501 H 7.4083332 L 7.143751,1.8631132 Z m 0.2954225,0 L 7.143751,1.8961859 V 2.1166657 L 7.6729157,1.587501 Z"
       id="path2-5" />
    <path
       style="fill:#8e919c;fill-opacity:1;stroke-width:0.0165345"
       d="m 7.4188613,2.881188 c -0.00344,0 -0.00696,1.817e-4 -0.010599,4.44e-4 -0.093172,0.00739 -0.068453,0.1060035 -0.069842,0.1388906 -0.00171,0.024025 -0.00661,0.043056 -0.023149,0.066584 -0.01956,0.023165 -0.046942,0.060632 -0.059938,0.099621 -0.0061,0.018336 -0.00904,0.037219 -0.00629,0.054961 -8.733e-4,6.867e-4 -0.00171,0.00147 -0.00249,0.00291 -0.00569,0.00595 -0.00992,0.013279 -0.014567,0.018518 -0.00438,0.00438 -0.010664,0.00587 -0.017577,0.0088 -0.00688,0.00299 -0.014551,0.00593 -0.019031,0.015062 -0.00197,0.00415 -0.00303,0.00861 -0.00293,0.013279 0,0.0043 6.2e-4,0.00878 0.0012,0.011788 0.00131,0.00878 0.00258,0.016021 8.667e-4,0.021364 -0.00551,0.014965 -0.0061,0.025215 -0.00231,0.032722 0.00385,0.00741 0.011788,0.010333 0.020651,0.013276 0.017923,0.00438 0.042114,0.00299 0.061244,0.013161 0.020386,0.010333 0.041155,0.014815 0.057689,0.010433 0.011523,-0.00258 0.021345,-0.010251 0.026604,-0.020833 0.012914,-8.13e-5 0.027117,-0.00595 0.049785,-0.00741 0.015411,-0.00131 0.034706,0.00593 0.056829,0.00438 6e-4,0.00303 0.00137,0.00438 0.00258,0.00741 v 8.13e-5 c 0.0086,0.01713 0.024538,0.024885 0.0416,0.023595 0.016948,-0.00137 0.035037,-0.011788 0.04967,-0.028836 0.013955,-0.016799 0.03712,-0.023875 0.052448,-0.033069 0.00767,-0.00441 0.013871,-0.010333 0.014303,-0.018865 5.1e-4,-0.00878 -0.00438,-0.017907 -0.015675,-0.030307 v -0.00217 l -8.24e-5,-8.13e-5 c -0.00379,-0.00438 -0.00551,-0.01179 -0.00749,-0.020386 -0.00191,-0.00888 -0.00397,-0.017312 -0.010846,-0.023082 -0.0014,-0.0012 -0.00276,-0.00147 -0.00421,-0.00293 -0.0012,-8.667e-4 -0.00269,-0.00137 -0.00415,-0.00145 0.00947,-0.028175 0.00577,-0.056151 -0.00389,-0.0814 -0.011709,-0.031085 -0.032294,-0.058201 -0.047886,-0.076803 -0.017577,-0.022139 -0.034789,-0.043139 -0.034442,-0.074223 6.001e-4,-0.047471 0.00524,-0.1352032 -0.078109,-0.1353851 z m 0.011623,0.075083 h 3.554e-4 c 0.00465,0 0.00868,0.0014 0.012832,0.00431 0.00421,0.00299 0.00733,0.00733 0.00964,0.011788 0.00233,0.00569 0.00355,0.010069 0.00371,0.015923 0,-4.24e-4 8.11e-5,-8.733e-4 8.11e-5,-0.00127 v 0.00231 c 0,-1.819e-4 -8.11e-5,-3.332e-4 -8.11e-5,-5.1e-4 l -8.3e-5,-5.232e-4 c 0,0.00536 -0.00111,0.010697 -0.00325,0.015593 -0.00105,0.00276 -0.00258,0.00527 -0.00475,0.00741 -6e-4,-3.332e-4 -0.0012,-6.934e-4 -0.00191,-9.334e-4 -0.00231,-0.00105 -0.00438,-0.00137 -0.00629,-0.00291 -0.00153,-6.2e-4 -0.00317,-0.00113 -0.00483,-0.00147 0.00105,-0.00127 0.00319,-0.00293 0.00405,-0.00438 0.00113,-0.00276 0.00171,-0.00577 0.00191,-0.00886 v -4.44e-4 c 8.11e-5,-0.00293 -4.44e-4,-0.00594 -0.0014,-0.00878 -9.267e-4,-0.00293 -0.00213,-0.00441 -0.00395,-0.00733 -0.00191,-0.00147 -0.00371,-0.00293 -0.00595,-0.00293 h -3.332e-4 c -0.00207,0 -0.00389,6e-4 -0.00577,0.00293 -0.00207,0.00205 -0.00362,0.00456 -0.00448,0.00733 -0.0012,0.00285 -0.00191,0.00584 -0.00197,0.00878 v 4.44e-4 c 0,0.00197 1.813e-4,0.00395 4.24e-4,0.00593 -0.0043,-0.00145 -0.00964,-0.00303 -0.013425,-0.00448 -1.813e-4,-0.00145 -3.554e-4,-0.00293 -3.554e-4,-0.00438 v -4.44e-4 c -1.502e-4,-0.00584 9.266e-4,-0.011623 0.00329,-0.016947 0.0018,-0.00483 0.00507,-0.00898 0.00947,-0.011723 0.00377,-0.00283 0.00833,-0.00438 0.013079,-0.00438 z m -0.065278,0.00131 h 7.733e-4 c 0.00311,0 0.00595,0.00105 0.0088,0.00293 0.00325,0.00285 0.00587,0.00637 0.00759,0.010236 0.00197,0.00441 0.00309,0.00888 0.00344,0.014731 v 8.24e-5 c 8.24e-5,0.00293 8.24e-5,0.0045 -8.26e-5,0.00587 v 0.0018 c -6.866e-4,1.819e-4 -0.0012,3.554e-4 -0.0018,5.1e-4 -0.00335,0.0012 -0.00602,0.00293 -0.00871,0.00441 2.665e-4,-0.00197 2.665e-4,-0.00397 8.24e-5,-0.00587 V 2.991925 c -2.444e-4,-0.00291 -8.733e-4,-0.00438 -0.0018,-0.00732 -6.933e-4,-0.00223 -0.00197,-0.0043 -0.00371,-0.00593 -0.00105,-9.333e-4 -0.00249,-0.00147 -0.00395,-0.0014 h -5.3e-4 c -0.00153,8.24e-5 -0.00285,8.667e-4 -0.00403,0.00293 -0.00147,0.00165 -0.00233,0.00371 -0.00266,0.00595 -6.25e-4,0.00231 -8e-4,0.00481 -5.3e-4,0.00733 v 2.443e-4 c 2.666e-4,0.00303 7.733e-4,0.0045 0.0018,0.00741 9.333e-4,0.00293 0.00217,0.00441 0.00362,0.00587 2.666e-4,2.665e-4 4.44e-4,4.44e-4 7.734e-4,5.1e-4 -0.00153,0.00131 -0.00258,0.00157 -0.00385,0.00303 -8.667e-4,6.2e-4 -0.0018,0.0014 -0.00293,0.00157 -0.00233,-0.00278 -0.00431,-0.00577 -0.00603,-0.00888 -0.00213,-0.00465 -0.00325,-0.00964 -0.00344,-0.014733 -3.554e-4,-0.00498 2.665e-4,-0.00999 0.00171,-0.014731 0.00131,-0.0043 0.00337,-0.00835 0.00629,-0.011788 0.00285,-0.00293 0.00569,-0.00438 0.00921,-0.00438 z m 0.030225,0.037633 c 0.00733,0 0.016122,0.00137 0.026786,0.00878 0.00647,0.00441 0.011557,0.00595 0.023264,0.010251 0.00569,0.00303 0.00894,0.00595 0.010581,0.00888 v -0.00293 c 0.00157,0.00326 0.00173,0.00696 3.554e-4,0.010317 -0.00276,0.00689 -0.011375,0.01422 -0.023496,0.018601 v 8.24e-5 c -0.00587,0.00293 -0.011029,0.00733 -0.017063,0.010251 -0.0061,0.00293 -0.013011,0.00647 -0.022305,0.00587 -0.00335,1.488e-4 -0.0067,-3.554e-4 -0.0099,-0.00147 -0.0024,-0.00127 -0.00481,-0.00276 -0.00706,-0.00438 -0.0043,-0.00293 -0.008,-0.00733 -0.013509,-0.010251 v -8.24e-5 h -8.26e-5 c -0.00888,-0.00543 -0.013607,-0.011293 -0.015162,-0.015675 -0.00147,-0.00593 -8.26e-5,-0.010318 0.00431,-0.013246 0.00489,-0.00293 0.00833,-0.00595 0.010581,-0.00741 0.00231,-0.00165 0.00319,-0.00225 0.00389,-0.00285 h 8.24e-5 v -8.27e-5 c 0.00371,-0.00448 0.00954,-0.010335 0.018518,-0.013279 0.00299,-7.733e-4 0.00647,-0.00137 0.010235,-0.00137 z m 0.061657,0.047173 c 0.00794,0.031267 0.026456,0.076654 0.038344,0.098612 0.00629,0.011788 0.018849,0.036591 0.024273,0.066667 0.00344,-8.26e-5 0.00723,4.24e-4 0.011293,0.00145 0.014287,-0.036856 -0.01197,-0.076472 -0.023942,-0.087501 -0.00491,-0.00438 -0.00516,-0.00733 -0.00276,-0.00733 0.013011,0.011705 0.030043,0.03464 0.036244,0.060715 0.00285,0.01179 0.00355,0.024389 5.3e-4,0.036856 0.00145,6e-4 0.00293,0.00137 0.00448,0.00147 0.022735,0.011821 0.031167,0.020684 0.027117,0.033929 v -9.333e-4 c -0.00127,-6.62e-5 -0.00266,0 -0.00395,0 h -3.554e-4 c 0.00337,-0.010317 -0.00403,-0.018254 -0.023496,-0.027033 -0.020155,-0.00878 -0.03626,-0.00741 -0.039022,0.010251 -1.812e-4,9.334e-4 -2.443e-4,0.00147 -3.332e-4,0.00303 -0.00157,5.1e-4 -0.00311,0.00111 -0.00465,0.00137 -0.00947,0.00595 -0.014567,0.014816 -0.017477,0.026191 -0.00285,0.01179 -0.00371,0.025479 -0.00448,0.041254 -5.3e-4,0.00741 -0.00379,0.018503 -0.00708,0.029779 -0.033069,0.023678 -0.078969,0.033929 -0.1178748,0.00741 -0.00251,-0.0043 -0.00544,-0.00827 -0.00888,-0.01179 -0.00165,-0.00276 -0.00371,-0.00516 -0.0061,-0.00733 0.00403,0 0.00749,-6.867e-4 0.010251,-0.00147 0.00317,-0.00153 0.00569,-0.00421 0.00696,-0.00739 0.00233,-0.00587 0,-0.015344 -0.00767,-0.025678 -0.00756,-0.010239 -0.020487,-0.021879 -0.039354,-0.033486 -0.013938,-0.00878 -0.021777,-0.019196 -0.025397,-0.030754 -0.00362,-0.011788 -0.00311,-0.023942 -3.554e-4,-0.036243 0.00543,-0.023595 0.019296,-0.046578 0.028175,-0.06098 0.00231,-0.00137 7.733e-4,0.00303 -0.00904,0.021543 -0.00871,0.016535 -0.025149,0.055027 -0.00269,0.084905 8.667e-4,-0.021777 0.00569,-0.043304 0.014303,-0.063377 0.012385,-0.028158 0.03841,-0.077233 0.040477,-0.1161551 0.00105,8.733e-4 0.00475,0.00303 0.00637,0.00448 0.00475,0.00293 0.00835,0.00733 0.013012,0.010251 0.00465,0.00438 0.010499,0.00741 0.019295,0.00741 8.734e-4,8.24e-5 0.00165,8.24e-5 0.00239,8.24e-5 0.00904,0 0.016121,-0.00293 0.021959,-0.00587 0.00637,-0.00303 0.011557,-0.00741 0.016353,-0.00886 h 8.12e-5 c 0.010251,-0.00293 0.018436,-0.00888 0.023,-0.015426 z m 0.048232,0.1974887 c 8.667e-4,0.013245 0.00759,0.027464 0.01946,0.030374 0.012914,0.00293 0.031598,-0.00733 0.039435,-0.016866 l 0.00465,-1.816e-4 c 0.00696,-1.82e-4 0.012747,1.816e-4 0.018667,0.00587 l 8.13e-5,8.14e-5 c 0.00456,0.00438 0.00673,0.011705 0.00861,0.019295 0.00191,0.00886 0.00335,0.017212 0.00904,0.023496 0.010664,0.011623 0.014203,0.019973 0.014038,0.025149 v 0 c -3.554e-4,0.00575 -0.00415,0.00868 -0.011029,0.013079 -0.013871,0.00888 -0.038493,0.015675 -0.054167,0.03464 -0.013625,0.016271 -0.030225,0.025133 -0.044892,0.026257 -0.014633,0.0012 -0.027299,-0.00438 -0.034706,-0.019791 l -8.11e-5,-8.14e-5 c -0.00465,-0.0088 -0.00267,-0.022569 0.0012,-0.037219 0.00389,-0.014733 0.00947,-0.029696 0.010251,-0.041849 7.734e-4,-0.015757 0.00165,-0.029448 0.00421,-0.040063 0.00267,-0.010251 0.00681,-0.017577 0.01422,-0.02161 l 9.333e-4,-5.301e-4 z m -0.2384614,0.00111 h 2.665e-4 c 0.0012,0 0.00233,8.24e-5 0.00344,3.554e-4 0.00827,0.0012 0.015593,0.00733 0.02257,0.016535 l 0.020057,0.03669 8.24e-5,8.12e-5 c 0.00534,0.011705 0.016617,0.023413 0.026174,0.036095 0.00957,0.013161 0.016981,0.024951 0.016121,0.034607 v 1.813e-4 c -0.00131,0.016353 -0.010599,0.025215 -0.024801,0.028506 -0.01422,0.00293 -0.033516,0 -0.052795,-0.010251 -0.021345,-0.01179 -0.04676,-0.010335 -0.06303,-0.013279 -0.00809,-0.00147 -0.013425,-0.00448 -0.015939,-0.00886 -0.00239,-0.00438 -0.00249,-0.013279 0.00276,-0.027134 v -7.12e-5 c 0.00258,-0.00741 7.067e-4,-0.016617 -6e-4,-0.024719 -0.0012,-0.0088 -0.0018,-0.015609 9.334e-4,-0.020684 0.00353,-0.0074 0.00878,-0.00878 0.015229,-0.011785 0.00647,-0.00293 0.014138,-0.00438 0.020155,-0.010333 h 8.24e-5 v -8.13e-5 c 0.00561,-0.00584 0.00984,-0.013163 0.014734,-0.018436 0.00415,-0.00448 0.00835,-0.00741 0.014551,-0.00741 z M 7.4247311,3.0409341 c -0.00957,0.00438 -0.020851,0.011788 -0.032821,0.011788 -0.01197,0 -0.021363,-0.00584 -0.028158,-0.010251 -0.00344,-0.00299 -0.0062,-0.00593 -0.00827,-0.00741 -0.00362,-0.00291 -0.00319,-0.00739 -0.00165,-0.00739 0.00239,3.332e-4 0.00285,0.00299 0.00438,0.00448 0.00217,0.00147 0.00475,0.00438 0.00792,0.00733 0.00647,0.00438 0.01508,0.010317 0.025744,0.010317 0.010697,0 0.023264,-0.00593 0.030837,-0.010317 0.0043,-0.00293 0.0098,-0.00733 0.014287,-0.010251 0.00344,-0.00303 0.00329,-0.00595 0.0061,-0.00595 0.00285,3.555e-4 8e-4,0.00293 -0.00317,0.00733 -0.00405,0.00303 -0.010251,0.00741 -0.015229,0.010333 z m -0.023859,-0.034961 v -4.24e-4 c -8.24e-5,-4.44e-4 2.443e-4,-9.267e-4 6.867e-4,-0.00113 0.00153,-9.267e-4 0.00395,-6.2e-4 0.00569,8.24e-5 0.00137,0 0.00353,0.00147 0.00335,0.00299 -1.812e-4,0.00105 -0.00191,0.00147 -0.00303,0.00147 -0.0012,0 -0.00207,-9.334e-4 -0.00309,-0.00153 -0.00113,-3.554e-4 -0.00329,-1.817e-4 -0.00362,-0.00147 z m -0.012152,0 c -4.44e-4,0.00131 -0.00251,0.00113 -0.00362,0.00147 -0.00105,6e-4 -0.00191,0.00153 -0.00311,0.00153 -0.00113,0 -0.00293,-4.44e-4 -0.00303,-0.00153 -1.488e-4,-0.00147 0.00191,-0.00293 0.00329,-0.00293 0.0018,-7.067e-4 0.00403,-0.00105 0.00575,-8.24e-5 3.554e-4,1.816e-4 8e-4,6.866e-4 6.25e-4,0.00113 v 4.24e-4 z"
       id="path2-87" />
    <path
       style="fill:#8e919c;fill-opacity:1;stroke-width:0.0164522"
       d="m 6.1401334,1.6006708 0.019791,0.00436 0.016008,0.00574 0.012949,0.00658 0.00986,0.00704 0.00745,0.00745 0.00548,0.00744 0.00351,0.00722 0.00215,0.00658 9.267e-4,0.00566 4.32e-4,0.00446 -2.612e-4,0.00283 v 0.1171398 l -0.00113,0.013804 -0.00282,0.012092 -0.00463,0.010118 -0.00566,0.00831 -0.00658,0.00676 -0.00719,0.00548 -0.00772,0.00421 -0.00772,0.00309 -0.00719,0.00223 -0.00658,0.00146 -0.00566,9.267e-4 -0.00463,4.32e-4 H 6.0199144 l -0.015069,0.00109 -0.012949,0.00302 -0.010974,0.00489 -0.009,0.00591 -0.00729,0.00704 -0.00593,0.00762 -0.00436,0.00798 -0.00329,0.00804 -0.00223,0.0077 -0.00153,0.00704 -8.666e-4,0.00591 -3.982e-4,0.00463 v 0.067107 h -0.048943 l -0.00461,-6.933e-4 -0.00619,-0.00153 -0.00693,-0.00255 -0.00772,-0.00395 -0.00788,-0.00573 -0.00788,-0.0079 -0.00772,-0.010118 -0.00702,-0.012949 -0.00619,-0.016008 -0.00454,-0.019283 -0.00309,-0.02305 -0.00113,-0.026982 0.00129,-0.026736 0.00351,-0.022788 0.00531,-0.019101 0.00702,-0.015596 0.0079,-0.012504 0.00874,-0.00961 0.00926,-0.00729 0.00917,-0.00522 0.00882,-0.00351 0.0079,-0.00223 0.00702,-0.00113 0.00522,-1.809e-4 h 0.00351 l 0.00139,1.809e-4 H 6.0911582 V 1.715451 h -0.128105 l -1.811e-4,-0.06033 -3.983e-4,-0.00814 0.00113,-0.00745 0.00239,-0.00676 0.00369,-0.00619 0.00548,-0.00564 0.00686,-0.00507 0.00829,-0.00436 0.00969,-0.00403 0.011136,-0.00325 0.012766,-0.00265 0.01395,-0.00215 0.015596,-0.00137 0.016898,-8.534e-4 0.018428,-4.44e-4 0.027838,0.00112 z m -0.1381331,0.043434 -0.00507,0.00719 -0.00179,0.009 0.00179,0.00902 0.00507,0.00744 0.00719,0.00489 0.009,0.00195 0.009,-0.00195 0.00719,-0.00489 0.00507,-0.00744 0.00179,-0.00902 -0.00179,-0.009 -0.00507,-0.00719 -0.00719,-0.00481 -0.009,-0.00195 -0.009,0.00195 z m 0.2871409,0.086621 0.00607,0.00139 0.00702,0.00255 0.00772,0.00395 0.00788,0.00591 0.0079,0.00772 0.0077,0.010284 0.00702,0.012915 0.0061,0.016042 0.00463,0.019363 0.00309,0.022788 0.00113,0.026982 -0.00136,0.026999 -0.00353,0.022788 -0.00521,0.018838 -0.00702,0.015596 -0.0079,0.012504 -0.00882,0.00987 -0.00916,0.00719 -0.00926,0.00531 -0.00874,0.00351 -0.0079,0.00199 -0.00702,0.00113 -0.00522,3.982e-4 -0.00351,-2.469e-4 H 6.0903547 v 0.017982 h 0.1281098 l 2.611e-4,0.060594 3.982e-4,0.00788 -0.00113,0.00745 -0.00239,0.00676 -0.00377,0.00633 -0.00548,0.00548 -0.00676,0.00533 -0.00831,0.00436 -0.00969,0.00377 -0.011136,0.00325 -0.012766,0.00282 -0.014034,0.00195 -0.015514,0.00153 -0.016977,8.667e-4 -0.018428,2.612e-4 -0.027835,-8.667e-4 -0.023478,-0.00309 -0.019728,-0.00435 -0.016003,-0.00548 -0.012948,-0.0066 -0.00986,-0.00729 -0.00745,-0.00745 -0.00548,-0.00744 -0.00351,-0.00722 -0.00223,-0.00658 -8.667e-4,-0.00548 -4.32e-4,-0.00439 1.812e-4,-0.00282 v -0.11713 l 0.00113,-0.014067 0.00292,-0.011913 0.00454,-0.010018 0.00574,-0.00841 0.00658,-0.00693 0.00722,-0.00531 0.0077,-0.00439 0.00763,-0.00309 0.00729,-0.00223 0.0066,-0.00126 0.00565,-8.666e-4 0.00745,-6.934e-4 h 0.1281132 l 0.015151,-0.00109 0.012948,-0.00302 0.010974,-0.00463 0.009,-0.00617 0.00722,-0.00704 0.00591,-0.00762 0.00446,-0.00798 0.00329,-0.00788 0.00223,-0.00763 0.00156,-0.00702 8.666e-4,-0.00617 3.982e-4,-0.00463 v -0.067105 h 0.045853 l 0.00309,1.81e-4 z m -0.1419993,0.3125923 -0.00507,0.00729 -0.00173,0.00902 0.00173,0.009 0.00507,0.00719 0.00729,0.00505 0.009,0.00173 0.009,-0.00173 0.00719,-0.00505 0.00507,-0.00719 0.00179,-0.009 -0.00179,-0.00902 -0.00507,-0.00729 -0.00719,-0.00505 -0.009,-0.00173 -0.009,0.00173 z"
       id="path2-84" />
    <path
       style="fill:#8e919c;fill-opacity:1;stroke-width:0.0165359"
       d="M 4.919098,4.4979002 4.921228,4.6015144 4.852935,4.5618114 V 4.7096099 L 4.7625,4.7624919 V 4.2333414 L 4.9873754,4.3633967 V 4.4802729 L 4.8529639,4.4009499 v 0.059513 z M 4.5156042,4.3633803 4.7404765,4.2333249 V 4.7624755 L 4.6500419,4.7095935 V 4.4009168 l -0.1344377,0.079323 z"
       id="path2" />
    <path
       style="fill:#8e919c;fill-opacity:1;stroke-width:0.0165396"
       d="m 4.6517843,3.319292 c -0.015067,0 -0.028763,-0.012305 -0.028763,-0.027307 0,-0.015001 0.012305,-0.027389 0.028763,-0.027389 0.016539,0 0.028961,0.012322 0.028961,0.027389 0,0.015001 -0.013777,0.027307 -0.028861,0.027307 z M 5.00489,3.1701868 C 5.00186,3.1483048 4.988351,3.1304758 4.970504,3.1168628 l -0.00696,-0.00551 -0.00561,0.0068 c -0.01085,0.012322 -0.015233,0.034204 -0.013877,0.050562 0.00131,0.012421 0.00524,0.024727 0.012239,0.034287 -0.00569,0.00293 -0.01257,0.00551 -0.017929,0.00835 -0.01257,0.00412 -0.024809,0.00551 -0.037033,0.00551 h -0.3537 l -0.00139,0.00809 c -0.00258,0.026116 0.00139,0.053407 0.012421,0.078133 l 0.00543,0.00958 v 0.00127 c 0.033079,0.054796 0.091911,0.07944 0.156085,0.07944 0.1233695,0 0.2244931,-0.053324 0.2724582,-0.1683244 0.031441,0.00137 0.063165,-0.00681 0.078051,-0.036966 l 0.00397,-0.0068 -0.00655,-0.00415 c -0.017912,-0.010935 -0.042391,-0.01239 -0.062867,-0.00688 l -4.44e-4,8.25e-5 z M 4.8282959,3.1483047 h -0.053572 v 0.05339 h 0.053572 z m 0,-0.067101 h -0.053572 v 0.05339 h 0.053572 z m 0,-0.068491 h -0.053572 v 0.053407 h 0.053572 z m 0.065464,0.1355923 h -0.053241 v 0.05339 h 0.053407 v -0.05339 z m -0.1983769,0 H 4.642141 v 0.05339 h 0.053407 v -0.05339 z m 0.066754,0 H 4.709259 v 0.05339 H 4.7625 v -0.05339 z m -0.1329129,0 h -0.05291 v 0.05339 h 0.053588 V 3.148305 Z M 4.7621368,3.081204 h -0.052878 v 0.05339 h 0.053242 V 3.08127 Z m -0.067118,0 h -0.052795 v 0.05339 h 0.053242 V 3.08127 l -3.488e-4,-6.62e-5 z"
       id="path2-1" />
    <path
       d="m 8.7312506,1.5874985 c -0.00431,0 -0.00857,0.00103 -0.012401,0.00327 L 8.5121818,1.7106417 c -0.00775,0.00448 -0.012482,0.012739 -0.012401,0.021701 v 0.2393912 c 0,0.00896 0.00473,0.017316 0.012401,0.021699 l 0.2066684,0.1198677 c 0.00767,0.00449 0.017045,0.00449 0.0248,0 l 0.206669,-0.1198715 c 0.00767,-0.00448 0.012401,-0.012668 0.012401,-0.021527 V 1.7321664 c 0,-0.00896 -0.00482,-0.017221 -0.012573,-0.0217 L 8.7438229,1.5907707 c -0.00383,-0.00224 -0.00827,-0.00327 -0.012573,-0.00327 z m 0.1887572,0.3255028 v 0.00741 l -0.025488,0.01481 v 0.018943 l 0.024284,-0.014121 v 0.00741 l -0.024284,0.01412 v 0.023249 l 0.026178,-0.015157 v 0.00723 l -0.033756,0.01946 v -0.06424 z m -0.058901,0.036167 c 0.00313,-4.999e-4 0.00574,-7.19e-5 0.00775,0.00137 0.00403,0.0029 0.00603,0.00982 0.00603,0.020839 0,0.010965 -0.002,0.02018 -0.00603,0.027728 -0.00403,0.00752 -0.010271,0.013691 -0.018773,0.0186 l -0.011367,0.00655 v -0.064243 l 0.011367,-0.00655 c 0.00425,-0.00243 0.00789,-0.00383 0.011023,-0.00431 z m 0.00207,0.0093 c -0.00249,-0.00217 -0.0069,-0.00143 -0.013261,0.00223 l -0.00361,0.00207 v 0.049945 l 0.00361,-0.00207 c 0.00634,-0.00367 0.010752,-0.00788 0.013261,-0.012918 0.00251,-0.00507 0.00379,-0.012458 0.00379,-0.021872 10e-8,-0.0095 -0.00128,-0.015261 -0.00379,-0.017393 z m -0.044262,0.013777 c 0.00233,2.87e-5 0.00433,0.00107 0.00585,0.00293 0.00309,0.00373 0.00465,0.011165 0.00465,0.022389 0,0.011195 -0.00157,0.02061 -0.00465,0.027899 -0.00305,0.00728 -0.00766,0.012731 -0.013951,0.016361 -0.00629,0.00363 -0.011067,0.00355 -0.014122,-1.723e-4 -0.00305,-0.00372 -0.00465,-0.011311 -0.00465,-0.022562 0,-0.011225 0.00159,-0.02045 0.00465,-0.027729 0.00309,-0.00729 0.00786,-0.012744 0.014122,-0.016361 0.00315,-0.0018 0.00576,-0.0028 0.00809,-0.00277 z m -0.00809,0.00982 c -0.00381,0.0022 -0.00658,0.00583 -0.00827,0.010851 -0.00167,0.00501 -0.00259,0.012258 -0.00259,0.021699 0,0.00942 9.133e-4,0.015501 0.00259,0.018601 0.00169,0.00307 0.00446,0.00375 0.00827,0.00157 0.00383,-0.0022 0.00643,-0.00587 0.00809,-0.010851 0.00169,-0.00502 0.00259,-0.012258 0.00259,-0.021699 0,-0.00944 -8.933e-4,-0.015707 -0.00259,-0.018773 -0.00167,-0.0031 -0.00427,-0.00358 -0.00809,-0.00137 z m -0.028244,0.010335 v 0.064239 l -0.00964,0.00551 -0.018772,-0.042022 v 0.052872 l -0.00706,0.00413 v -0.064242 l 0.00947,-0.00551 0.018772,0.042022 v -0.052872 z"
       style="fill:#8e919c;fill-opacity:1;stroke-width:0.0165347"
       id="path2-39" />
    <g
       id="g25"
       transform="matrix(6.5429381e-4,0,0,6.5429381e-4,0.24364593,1.1605425)"
       style="fill:#e1e1e1;fill-opacity:1">
      <polygon
         fill="var(--ci-primary-color, currentColor)"
         points="256,450.357 400,369.357 400,266.303 368,284.081 368,350.643 256,413.643 144,350.643 144,284.081 112,266.303 112,369.357 "
         class="ci-primary"
         id="polygon2"
         style="fill:#e1e1e1;fill-opacity:1" />
      <path
         fill="var(--ci-primary-color, currentColor)"
         d="M 256,45.977 32,162.125 v 27.734 L 256,314.3 448,207.637 V 296 h 32 V 162.125 Z M 416,188.808 384,206.585 256,277.7 128,206.585 96,188.808 73.821,176.486 256,82.023 438.179,176.486 Z"
         class="ci-primary"
         id="path4"
         style="fill:#e1e1e1;fill-opacity:1" />
    </g>
    <text
       xml:space="preserve"
       style="font-size:0.264583px;line-height:1.25;font-family:'DejaVu Sans Mono';-inkscape-font-specification:'DejaVu Sans Mono';letter-spacing:0px;word-spacing:0px;fill:#e1e1e1;fill-opacity:1;stroke-width:0.264583"
       x="0.63923752"
       y="1.3893853"
       id="text871"><tspan
         sodipodi:role="line"
         id="tspan869"
         x="0.63923752"
         y="1.3893853"
         style="font-style:normal;font-variant:normal;font-weight:bold;font-stretch:normal;font-size:0.264583px;font-family:Calibri;-inkscape-font-specification:Calibri;fill:#e1e1e1;fill-opacity:1;stroke-width:0.264583">Diplomas</tspan></text>
    <path
       style="fill:none;stroke:#e1e1e1;stroke-width:0.0273869;stroke-linecap:butt;stroke-linejoin:miter;stroke-miterlimit:4;stroke-dasharray:none;stroke-opacity:1"
       d="M 0.66145833,1.4807713 H 2.6458333"
       id="path873" />
    <text
       id="text877"
       y="3.6606517"
       x="4.7537794"
       style="font-size:0.264583px;line-height:1.25;font-family:'DejaVu Sans Mono';-inkscape-font-specification:'DejaVu Sans Mono';letter-spacing:0px;word-spacing:0px;fill:#8e919c;fill-opacity:1;stroke-width:0.264583"
       xml:space="preserve"><tspan
         style="font-style:normal;font-variant:normal;font-weight:normal;font-stretch:normal;font-size:0.264583px;font-family:Calibri;-inkscape-font-specification:Calibri;text-align:center;text-anchor:middle;fill:#8e919c;fill-opacity:1;stroke-width:0.264583"
         y="3.6606517"
         x="4.7537794"
         id="tspan875"
         sodipodi:role="line">Docker</tspan></text>
    <text
       id="text881"
       y="1.891228"
       x="0.6365245"
       style="font-size:0.264583px;line-height:1.25;font-family:'DejaVu Sans Mono';-inkscape-font-specification:'DejaVu Sans Mono';letter-spacing:0px;word-spacing:0px;fill:#e1e1e1;fill-opacity:1;stroke-width:0.264583"
       xml:space="preserve"><tspan
         style="font-style:normal;font-variant:normal;font-weight:normal;font-stretch:normal;font-size:0.264583px;font-family:Calibri;-inkscape-font-specification:Calibri;fill:#e1e1e1;fill-opacity:1;stroke-width:0.264583"
         y="1.891228"
         x="0.6365245"
         id="tspan879"
         sodipodi:role="line">• Computer Engineering</tspan></text>
    <text
       xml:space="preserve"
       style="font-size:0.264583px;line-height:0.95;font-family:'DejaVu Sans Mono';-inkscape-font-specification:'DejaVu Sans Mono';letter-spacing:0px;word-spacing:0px;fill:#e1e1e1;fill-opacity:1;stroke-width:0.264583"
       x="0.63923752"
       y="2.1653714"
       id="text885"><tspan
         sodipodi:role="line"
         id="tspan883"
         x="0.63923752"
         y="2.1653714"
         style="font-style:normal;font-variant:normal;font-weight:normal;font-stretch:normal;font-size:0.264583px;font-family:Calibri;-inkscape-font-specification:Calibri;fill:#e1e1e1;fill-opacity:1;stroke-width:0.264583">• Master's Degree in Artificial</tspan><tspan
         sodipodi:role="line"
         x="0.63923752"
         y="2.4193091"
         style="font-style:normal;font-variant:normal;font-weight:normal;font-stretch:normal;font-size:0.264583px;font-family:Calibri;-inkscape-font-specification:Calibri;fill:#e1e1e1;fill-opacity:1;stroke-width:0.264583"
         id="tspan887">Intelligence</tspan></text>
    <text
       xml:space="preserve"
       style="font-size:0.264583px;line-height:1.25;font-family:'DejaVu Sans Mono';-inkscape-font-specification:'DejaVu Sans Mono';letter-spacing:0px;word-spacing:0px;fill:#7081be;fill-opacity:1;stroke-width:0.264583;"
       x="4.2151175"
       y="4.1485839"
       id="text891"><tspan
         sodipodi:role="line"
         id="tspan889"
         x="4.2151175"
         y="4.1485839"
         style="font-style:normal;font-variant:normal;font-weight:bold;font-stretch:normal;font-size:0.264583px;font-family:Calibri;-inkscape-font-specification:Calibri;fill:#7081be;fill-opacity:1;stroke-width:0.264583;">Machine Learning</tspan></text>
    <text
       id="text895"
       y="1.4498338"
       x="4.2151175"
       style="font-size:0.264583px;line-height:1.25;font-family:'DejaVu Sans Mono';-inkscape-font-specification:'DejaVu Sans Mono';letter-spacing:0px;word-spacing:0px;fill:#7081be;fill-opacity:1;stroke-width:0.264583"
       xml:space="preserve"><tspan
         style="font-style:normal;font-variant:normal;font-weight:bold;font-stretch:normal;font-size:0.264583px;font-family:Calibri;-inkscape-font-specification:Calibri;fill:#7081be;fill-opacity:1;stroke-width:0.264583"
         y="1.4498338"
         x="4.2151175"
         id="tspan893"
         sodipodi:role="line">Programming Languages, Scripts and Frameworks</tspan></text>
    <text
       xml:space="preserve"
       style="font-size:0.264583px;line-height:1.25;font-family:'DejaVu Sans Mono';-inkscape-font-specification:'DejaVu Sans Mono';letter-spacing:0px;word-spacing:0px;fill:#7081be;fill-opacity:1;stroke-width:0.264583;"
       x="4.2317829"
       y="2.8256671"
       id="text899"><tspan
         sodipodi:role="line"
         id="tspan897"
         x="4.2317829"
         y="2.8256671"
         style="font-style:normal;font-variant:normal;font-weight:bold;font-stretch:normal;font-size:0.264583px;font-family:Calibri;-inkscape-font-specification:Calibri;fill:#7081be;fill-opacity:1;stroke-width:0.264583;">Tools and OS</tspan></text>
    <path
       style="display:inline;fill:#e1e1e1;fill-opacity:1;stroke-width:0.00063602"
       fill="var(--ci-primary-color, currentColor)"
       d="m 0.55460333,2.778125 h -0.27476 a 0.01528223,0.01528223 0 0 0 -0.01526,0.01526 V 3.02744 a 0.01528223,0.01528223 0 0 0 0.01526,0.01526 h 0.05597 V 3.00529 a 0.01272671,0.01272671 0 0 1 0.0065,-0.01112 l 0.0585,-0.03252 -0.01925,-0.04812 V 2.87479 a 0.03561699,0.03561699 0 0 1 0.07123,0 v 0.03874 l -0.01925,0.04812 0.0585,0.03252 v 0 a 0.01272735,0.01272735 0 0 1 0.0065,0.01112 V 3.0427 h 0.05597 a 0.01528223,0.01528223 0 0 0 0.01526,-0.01526 V 2.793385 a 0.01528223,0.01528223 0 0 0 -0.01526,-0.01526 z m -0.0051,0.244231 h -0.03053 v -0.01706 a 0.03309009,0.03309009 0 0 0 -0.01701,-0.02891 v 0 l -0.04283,-0.0238 0.01405,-0.03512 v -0.04266 a 0.05596955,0.05596955 0 0 0 -0.111939,0 v 0.04266 l 0.01405,0.03512 -0.04283,0.02381 a 0.03309009,0.03309009 0 0 0 -0.01701,0.0289 v 0.01706 h -0.03053 V 2.798478 h 0.264583 z"
       class="ci-primary"
       id="path2-2" />
    <text
       id="text924"
       y="2.9579585"
       x="0.64324242"
       style="font-size:0.264583px;line-height:1.25;font-family:'DejaVu Sans Mono';-inkscape-font-specification:'DejaVu Sans Mono';letter-spacing:0px;word-spacing:0px;fill:#e1e1e1;fill-opacity:1;stroke-width:0.264583"
       xml:space="preserve"><tspan
         style="font-style:normal;font-variant:normal;font-weight:bold;font-stretch:normal;font-size:0.264583px;font-family:Calibri;-inkscape-font-specification:Calibri;fill:#e1e1e1;fill-opacity:1;stroke-width:0.264583"
         y="2.9579585"
         x="0.64324242"
         id="tspan922"
         sodipodi:role="line">Contact</tspan></text>
    <path
       id="path926"
       d="M 0.66145833,3.0418497 H 2.6458333"
       style="fill:none;stroke:#e1e1e1;stroke-width:0.0273869;stroke-linecap:butt;stroke-linejoin:miter;stroke-miterlimit:4;stroke-dasharray:none;stroke-opacity:1" />
    <path
       id="path2-8"
       d="m 0.66145766,3.588412 v 0.1653646 c 0,0.00938 -0.00715,0.016536 -0.016536,0.016536 h -0.016536 V 3.6202364 l -0.099219,0.071272 -0.099219,-0.071272 V 3.770313 h -0.016536 c -0.00938,0 -0.016536,-0.00715 -0.016536,-0.016537 V 3.588412 c 0,-0.0047 0.00177,-0.00883 0.00474,-0.011757 0.00297,-0.00302 0.0071,-0.00478 0.011799,-0.00478 h 0.00551 l 0.1102403,0.079929 0.1102403,-0.079929 h 0.00551 c 0.0047,0 0.00883,0.00177 0.011799,0.00478 0.00297,0.00293 0.00474,0.00706 0.00474,0.011757 z"
       style="fill:#e1e1e1;fill-opacity:1;stroke-width:0.00826822" />
    <path
       style="display:inline;fill:#e1e1e1;fill-opacity:1;stroke-width:0.00063807"
       fill="var(--ci-primary-color, currentColor)"
       d="m 0.67008365,4.393118 -4.3699e-4,-2.73e-4 -0.05525,-0.02722 -0.05964,0.07951 0.02744,0.03659 a 0.0564874,0.0564874 0 0 1 -0.05303,0.05303 l -0.03658,-0.02744 -0.07951,0.05964 0.02699,0.05479 2.27e-4,4.619e-4 2.742e-4,4.371e-4 a 0.0160059,0.0160059 0 0 0 0.01365,0.0076 h 0.01426 a 0.20918121,0.20918121 0 0 0 0.2091808,-0.209182 v -0.01426 a 0.01600526,0.01600526 0 0 0 -0.0076,-0.01365 z m -0.01285,0.02791 c 0,0.104085 -0.08468,0.188764 -0.188763,0.188764 h -0.01154 l -0.01806,-0.03666 0.05371,-0.04028 0.0299,0.02243 h 0.0034 a 0.07690936,0.07690936 0 0 0 0.07682,-0.07682 v -0.0034 l -0.02243,-0.0299 0.04028,-0.05371 0.03666,0.01806 z"
       class="ci-primary"
       id="path2-43" />
    <path
       id="path2-49"
       d="m 0.52917541,3.1782569 c -0.073087,0 -0.1323,0.059262 -0.1323,0.1323 0,0.058485 0.037904,0.1080559 0.090435,0.1255444 0.00664,0.00125 0.00904,-0.00284 0.00904,-0.00638 0,-0.00314 -7.43e-5,-0.011452 -1.24e-4,-0.022483 -0.036821,0.00797 -0.044577,-0.017786 -0.044577,-0.017786 -0.00603,-0.015248 -0.014727,-0.019341 -0.014727,-0.019341 -0.011973,-0.00818 9.509e-4,-0.008 9.509e-4,-0.008 0.013263,9.013e-4 0.020242,0.013602 0.020242,0.013602 0.011799,0.020242 0.030958,0.014388 0.038541,0.010981 0.00116,-0.00853 0.00461,-0.014388 0.00836,-0.017654 -0.029371,-0.00332 -0.060254,-0.014685 -0.060254,-0.065381 0,-0.014479 0.00513,-0.02627 0.013602,-0.035531 -0.00146,-0.00332 -0.00594,-0.016794 0.00117,-0.035018 0,0 0.011072,-0.00353 0.036382,0.013569 0.010592,-0.00294 0.021838,-0.0044 0.033075,-0.00447 0.011246,7.43e-5 0.022483,0.00155 0.033075,0.00447 0.025162,-0.0171 0.036225,-0.013569 0.036225,-0.013569 0.0071,0.018224 0.00262,0.031694 0.00133,0.035018 0.00839,0.00926 0.013519,0.02106 0.013519,0.035531 0,0.050811 -0.030925,0.062016 -0.060329,0.065249 0.0046,0.00396 0.0089,0.012105 0.0089,0.024467 0,0.017695 -1.654e-4,0.03195 -1.654e-4,0.036258 0,0.00344 0.00231,0.00757 0.00913,0.00624 0.05292,-0.017306 0.090782,-0.066919 0.090782,-0.1253211 0,-0.073038 -0.059212,-0.1323 -0.1322999,-0.1323 z"
       style="fill:#e1e1e1;fill-opacity:1;stroke-width:0.00826874" />
    <path
       id="path2-9"
       d="m 0.61227566,4.1942259 h -0.039132 v -0.061406 c 0,-0.014643 -3.06e-4,-0.033461 -0.020463,-0.033461 -0.020405,0 -0.023514,0.015883 -0.023514,0.032377 v 0.062481 H 0.48998406 V 4.0679574 h 0.037636 v 0.017222 h 5.044e-4 c 0.00526,-0.00995 0.018049,-0.020405 0.037131,-0.020405 0.039695,0 0.047061,0.026135 0.047061,0.060116 v 0.069327 z M 0.44571736,4.0507022 c -0.012625,0 -0.022745,-0.010211 -0.022745,-0.022786 0,-0.012534 0.010161,-0.022729 0.022745,-0.022729 0.012584,0 0.022778,0.010194 0.022778,0.022729 0,0.012576 -0.010194,0.022786 -0.022778,0.022786 z m 0.019628,0.1435237 H 0.42608096 V 4.0679657 h 0.039265 z M 0.63192036,3.96875 h -0.2255172 c -0.010773,0 -0.019512,0.00852 -0.019512,0.019074 v 0.2264349 c 0,0.01055 0.00874,0.019074 0.019512,0.019074 h 0.2254758 c 0.010757,0 0.019587,-0.00852 0.019587,-0.019074 V 3.9878242 c 0,-0.01055 -0.00883,-0.019074 -0.019587,-0.019074 z"
       style="fill:#e1e1e1;fill-opacity:1;stroke-width:0.00826796" />
    <text
       xml:space="preserve"
       style="font-size:0.211667px;line-height:1.25;font-family:'DejaVu Sans Mono';-inkscape-font-specification:'DejaVu Sans Mono';letter-spacing:0px;word-spacing:0px;fill:#e1e1e1;fill-opacity:1;stroke-width:0.264583"
       x="0.77398378"
       y="3.3786693"
       id="text969"><tspan
         sodipodi:role="line"
         id="tspan967"
         x="0.77398378"
         y="3.3786693"
         style="font-style:normal;font-variant:normal;font-weight:normal;font-stretch:normal;font-size:0.211667px;font-family:Calibri;-inkscape-font-specification:Calibri;fill:#e1e1e1;fill-opacity:1;stroke-width:0.264583">https://github.com/Cynnexis</tspan></text>
    <text
       id="text973"
       y="3.7374978"
       x="0.78935748"
       style="font-size:0.211667px;line-height:1.25;font-family:'DejaVu Sans Mono';-inkscape-font-specification:'DejaVu Sans Mono';letter-spacing:0px;word-spacing:0px;fill:#e1e1e1;fill-opacity:1;stroke-width:0.264583"
       xml:space="preserve"><tspan
         style="font-style:normal;font-variant:normal;font-weight:normal;font-stretch:normal;font-size:0.211667px;font-family:Calibri;-inkscape-font-specification:Calibri;fill:#e1e1e1;fill-opacity:1;stroke-width:0.264583"
         y="3.7374978"
         x="0.78935748"
         id="tspan971"
         sodipodi:role="line">Valentin.berger38@gmail.com</tspan></text>
    <text
       xml:space="preserve"
       style="font-size:0.211667px;line-height:1.25;font-family:'DejaVu Sans Mono';-inkscape-font-specification:'DejaVu Sans Mono';letter-spacing:0px;word-spacing:0px;fill:#e1e1e1;fill-opacity:1;stroke-width:0.264583"
       x="0.78935748"
       y="4.1471372"
       id="text977"><tspan
         sodipodi:role="line"
         id="tspan975"
         x="0.78935748"
         y="4.1471372"
         style="font-style:normal;font-variant:normal;font-weight:normal;font-stretch:normal;font-size:0.211667px;font-family:Calibri;-inkscape-font-specification:Calibri;fill:#e1e1e1;fill-opacity:1;stroke-width:0.264583">linkedin.com/in/valentinberger/</tspan></text>
    <text
       id="text981"
       y="4.5447483"
       x="0.78470665"
       style="font-size:0.238125px;line-height:1.25;font-family:'DejaVu Sans Mono';-inkscape-font-specification:'DejaVu Sans Mono';letter-spacing:0px;word-spacing:0px;fill:#e1e1e1;fill-opacity:1;stroke-width:0.264583"
       xml:space="preserve"><tspan
         style="font-style:normal;font-variant:normal;font-weight:normal;font-stretch:normal;font-size:0.238125px;font-family:Calibri;-inkscape-font-specification:Calibri;fill:#e1e1e1;fill-opacity:1;stroke-width:0.264583"
         y="4.5447483"
         x="0.78470665"
         id="tspan979"
         sodipodi:role="line">+33 7 51 64 84 50</tspan></text>
    <text
       xml:space="preserve"
       style="font-size:0.264583px;line-height:1.25;font-family:'DejaVu Sans Mono';-inkscape-font-specification:'DejaVu Sans Mono';letter-spacing:0px;word-spacing:0px;fill:#8e919c;fill-opacity:1;stroke-width:0.264583"
       x="6.0863209"
       y="3.6340384"
       id="text985"><tspan
         sodipodi:role="line"
         id="tspan983"
         x="6.0863209"
         y="3.6340384"
         style="font-style:normal;font-variant:normal;font-weight:normal;font-stretch:normal;font-size:0.264583px;font-family:Calibri;-inkscape-font-specification:Calibri;text-align:center;text-anchor:middle;fill:#8e919c;fill-opacity:1;stroke-width:0.264583">git</tspan></text>
    <text
       id="text989"
       y="3.6563883"
       x="7.4001298"
       style="font-size:0.264583px;line-height:1.25;font-family:'DejaVu Sans Mono';-inkscape-font-specification:'DejaVu Sans Mono';letter-spacing:0px;word-spacing:0px;fill:#8e919c;fill-opacity:1;stroke-width:0.264583"
       xml:space="preserve"><tspan
         style="font-style:normal;font-variant:normal;font-weight:normal;font-stretch:normal;font-size:0.264583px;font-family:Calibri;-inkscape-font-specification:Calibri;text-align:center;text-anchor:middle;fill:#8e919c;fill-opacity:1;stroke-width:0.264583"
         y="3.6563883"
         x="7.4001298"
         id="tspan987"
         sodipodi:role="line">Linux</tspan></text>
    <text
       xml:space="preserve"
       style="font-size:0.264583px;line-height:1.25;font-family:'DejaVu Sans Mono';-inkscape-font-specification:'DejaVu Sans Mono';letter-spacing:0px;word-spacing:0px;fill:#8e919c;fill-opacity:1;stroke-width:0.264583"
       x="4.7537794"
       y="2.3377507"
       id="text993"><tspan
         sodipodi:role="line"
         id="tspan991"
         x="4.7537794"
         y="2.3377507"
         style="font-style:normal;font-variant:normal;font-weight:normal;font-stretch:normal;font-size:0.264583px;font-family:Calibri;-inkscape-font-specification:Calibri;text-align:center;text-anchor:middle;fill:#8e919c;fill-opacity:1;stroke-width:0.264583">C++</tspan></text>
    <text
       xml:space="preserve"
       style="font-size:0.264583px;line-height:1.25;font-family:'DejaVu Sans Mono';-inkscape-font-specification:'DejaVu Sans Mono';letter-spacing:0px;word-spacing:0px;fill:#8e919c;fill-opacity:1;stroke-width:0.264583"
       x="6.0766964"
       y="2.3377507"
       id="text1001"><tspan
         sodipodi:role="line"
         id="tspan999"
         x="6.0766964"
         y="2.3377507"
         style="font-style:normal;font-variant:normal;font-weight:normal;font-stretch:normal;font-size:0.264583px;font-family:Calibri;-inkscape-font-specification:Calibri;text-align:center;text-anchor:middle;fill:#8e919c;fill-opacity:1;stroke-width:0.264583">Python</tspan></text>
    <text
       xml:space="preserve"
       style="font-size:0.264583px;line-height:1.25;font-family:'DejaVu Sans Mono';-inkscape-font-specification:'DejaVu Sans Mono';letter-spacing:0px;word-spacing:0px;fill:#8e919c;fill-opacity:1;stroke-width:0.264583"
       x="7.3996129"
       y="2.3377507"
       id="text1009"><tspan
         sodipodi:role="line"
         id="tspan1007"
         x="7.3996129"
         y="2.3377507"
         style="font-style:normal;font-variant:normal;font-weight:normal;font-stretch:normal;font-size:0.264583px;font-family:Calibri;-inkscape-font-specification:Calibri;text-align:center;text-anchor:middle;fill:#8e919c;fill-opacity:1;stroke-width:0.264583">Kotlin</tspan></text>
    <text
       xml:space="preserve"
       style="font-size:0.264583px;line-height:1.25;font-family:'DejaVu Sans Mono';-inkscape-font-specification:'DejaVu Sans Mono';letter-spacing:0px;word-spacing:0px;fill:#8e919c;fill-opacity:1;stroke-width:0.264583"
       x="8.7225294"
       y="2.3377507"
       id="text1017"><tspan
         sodipodi:role="line"
         id="tspan1015"
         x="8.7225294"
         y="2.3377507"
         style="font-style:normal;font-variant:normal;font-weight:normal;font-stretch:normal;font-size:0.264583px;font-family:Calibri;-inkscape-font-specification:Calibri;text-align:center;text-anchor:middle;fill:#8e919c;fill-opacity:1;stroke-width:0.264583">Node.JS</tspan></text>
    <text
       xml:space="preserve"
       style="font-size:0.264583px;line-height:1.25;font-family:'DejaVu Sans Mono';-inkscape-font-specification:'DejaVu Sans Mono';letter-spacing:0px;word-spacing:0px;fill:#8e919c;fill-opacity:1;stroke-width:0.264583"
       x="10.045446"
       y="2.3377507"
       id="text1021"><tspan
         sodipodi:role="line"
         id="tspan1019"
         x="10.045446"
         y="2.3377507"
         style="font-style:normal;font-variant:normal;font-weight:normal;font-stretch:normal;font-size:0.264583px;font-family:Calibri;-inkscape-font-specification:Calibri;text-align:center;text-anchor:middle;fill:#8e919c;fill-opacity:1;stroke-width:0.264583">flutter</tspan></text>
    <text
       xml:space="preserve"
       style="font-size:0.264583px;line-height:1.25;font-family:'DejaVu Sans Mono';-inkscape-font-specification:'DejaVu Sans Mono';letter-spacing:0px;word-spacing:0px;fill:#8e919c;fill-opacity:1;stroke-width:0.264583"
       x="4.7537794"
       y="4.9718318"
       id="text1025"><tspan
         sodipodi:role="line"
         id="tspan1023"
         x="4.7537794"
         y="4.9718318"
         style="font-style:normal;font-variant:normal;font-weight:normal;font-stretch:normal;font-size:0.264583px;font-family:Calibri;-inkscape-font-specification:Calibri;text-align:center;text-anchor:middle;fill:#8e919c;fill-opacity:1;stroke-width:0.264583">TensorFlow</tspan></text>
  </g>
  <g
     sodipodi:insensitive="true"
     style="display:none"
     inkscape:label="Tools"
     id="layer2"
     inkscape:groupmode="layer">
    <path
       d="m -2.6458333,289.06249 v 1.32291 a 1.3229166,1.3229202 0 0 1 1.3229167,-1.32291 z"
       style="opacity:0.998;fill:#0d1117;stroke-width:1.05833;stroke-linecap:round;stroke-linejoin:round"
       id="rect834"
       transform="translate(0,-291.70831)" />
    <path
       id="path848"
       style="opacity:0.998;fill:#0d1117;stroke-width:0.634999;stroke-linecap:round;stroke-linejoin:round"
       d="m -2.1166666,289.59165 v 0.79375 a 0.79375063,0.79375279 0 0 1 0.7937507,-0.79375 z"
       transform="translate(0,-291.70831)" />
  </g>
</svg>
